<svg xmlns="http://www.w3.org/2000/svg" width="256" height="258">
  <path fill="none" d="M-1-1h258v260H-1z"/>
  <g>
    <path d="M128 1.667c-69.85 0-127 57.15-127 127s57.15 127 127 127 127-57.15 127-127-57.15-127-127-127zm87.63 76.2H178.8c-3.81-16.51-10.16-30.48-17.78-45.72 22.86 8.89 43.18 24.13 54.61 45.72zM128 27.067c10.16 15.24 19.05 31.75 24.13 50.8h-48.26c5.08-17.78 13.97-35.56 24.13-50.8zm-97.79 127c-2.54-7.62-3.81-16.51-3.81-25.4 0-8.89 1.27-17.78 3.81-25.4h43.18c-1.27 8.89-1.27 16.51-1.27 25.4 0 8.89 1.27 16.51 1.27 25.4H30.21zm10.16 25.4H77.2c3.81 16.51 10.16 30.48 17.78 45.72-22.86-8.89-43.18-24.13-54.61-45.72zm36.83-101.6H40.37c12.7-21.59 31.75-36.83 54.61-45.72-7.62 15.24-13.97 29.21-17.78 45.72zm50.8 152.4c-10.16-15.24-19.05-31.75-24.13-50.8h48.26c-5.08 17.78-13.97 35.56-24.13 50.8zm29.21-76.2H98.79c-1.27-8.89-2.54-16.51-2.54-25.4 0-8.89 1.27-16.51 2.54-25.4h59.69c1.27 8.89 2.54 16.51 2.54 25.4 0 8.89-2.54 16.51-3.81 25.4zm3.81 71.12c7.62-13.97 13.97-29.21 17.78-45.72h36.83c-11.43 21.59-31.75 36.83-54.61 45.72zm22.86-71.12c1.27-8.89 1.27-16.51 1.27-25.4 0-8.89-1.27-16.51-1.27-25.4h43.18c2.54 7.62 3.81 16.51 3.81 25.4 0 8.89-1.27 17.78-3.81 25.4h-43.18z"/>
  </g>
</svg>
